<?xml version="1.0" encoding="UTF-8" standalone="no"?>
<!DOCTYPE svg PUBLIC "-//W3C//DTD SVG 1.1//EN" "http://www.w3.org/Graphics/SVG/1.1/DTD/svg11.dtd">
<!-- Généré par Microsoft Visio, SVG Export SchemaOpenstackDemo.svg Page-1 -->
<svg xmlns="http://www.w3.org/2000/svg" xmlns:xlink="http://www.w3.org/1999/xlink" xmlns:ev="http://www.w3.org/2001/xml-events"
		xmlns:v="http://schemas.microsoft.com/visio/2003/SVGExtensions/" width="11.6929in" height="8.26772in"
		viewBox="0 0 841.89 595.276" xml:space="preserve" color-interpolation-filters="sRGB" class="st15">
	<v:documentProperties v:langID="1036" v:metric="true" v:viewMarkup="false">
		<v:userDefs>
			<v:ud v:nameU="msvSubprocessMaster" v:prompt="" v:val="VT4(Rectangle)"/>
			<v:ud v:nameU="msvNoAutoConnect" v:val="VT0(1):26"/>
		</v:userDefs>
	</v:documentProperties>

	<style type="text/css">
	<![CDATA[
		.st1 {fill:url(#grad0-4);stroke:#386288;stroke-width:0.75}
		.st2 {fill:#386288;font-family:Calibri;font-size:1.16666em}
		.st3 {font-size:1em}
		.st4 {fill:none;stroke:none;stroke-width:0.25}
		.st5 {fill:#203864;font-family:Calibri;font-size:1.00001em}
		.st6 {marker-end:url(#mrkr13-40);marker-start:url(#mrkr13-38);stroke:#5b9bd5;stroke-linecap:round;stroke-linejoin:round;stroke-width:1}
		.st7 {fill:#5b9bd5;fill-opacity:1;stroke:#5b9bd5;stroke-opacity:1;stroke-width:0.28409090909091}
		.st8 {fill:#ffffff;stroke:none;stroke-linecap:butt;stroke-width:7.2}
		.st9 {fill:#4f87bb;font-family:Calibri;font-size:0.916672em}
		.st10 {marker-end:url(#mrkr4-48);stroke:#5b9bd5;stroke-linecap:round;stroke-linejoin:round;stroke-width:1}
		.st11 {marker-end:url(#mrkr13-93);marker-start:url(#mrkr13-38);stroke:#5b9bd5;stroke-linecap:round;stroke-linejoin:round;stroke-width:1}
		.st12 {fill:#ffffff;stroke:#41719c;stroke-width:0.75}
		.st13 {fill:#12202c;font-family:Calibri;font-size:1.16666em}
		.st14 {marker-end:url(#mrkr4-107);stroke:#5b9bd5;stroke-linecap:round;stroke-linejoin:round;stroke-width:1}
		.st15 {fill:none;fill-rule:evenodd;font-size:12px;overflow:visible;stroke-linecap:square;stroke-miterlimit:3}
	]]>
	</style>

	<defs id="Patterns_And_Gradients">
		<linearGradient id="grad0-4" x1="0" y1="0" x2="1" y2="0" gradientTransform="rotate(60 0.5 0.5)">
			<stop offset="0" stop-color="#e8ebef" stop-opacity="1"/>
			<stop offset="0.24" stop-color="#f4f5f7" stop-opacity="1"/>
			<stop offset="0.54" stop-color="#feffff" stop-opacity="1"/>
		</linearGradient>
	</defs>
	<defs id="Markers">
		<g id="lend13">
			<path d="M 3 1 L 0 0 L 3 -1 L 3 1 " style="stroke:none"/>
		</g>
		<marker id="mrkr13-38" class="st7" v:arrowType="13" v:arrowSize="2" v:setback="10.2" refX="10.2" orient="auto"
				markerUnits="strokeWidth" overflow="visible">
			<use xlink:href="#lend13" transform="scale(3.52) "/>
		</marker>
		<marker id="mrkr13-40" class="st7" v:arrowType="13" v:arrowSize="2" v:setback="10.2" refX="-10.2" orient="auto"
				markerUnits="strokeWidth" overflow="visible">
			<use xlink:href="#lend13" transform="scale(-3.52,-3.52) "/>
		</marker>
		<g id="lend4">
			<path d="M 2 1 L 0 0 L 2 -1 L 2 1 " style="stroke:none"/>
		</g>
		<marker id="mrkr4-48" class="st7" v:arrowType="4" v:arrowSize="2" v:setback="6.68" refX="-6.68" orient="auto"
				markerUnits="strokeWidth" overflow="visible">
			<use xlink:href="#lend4" transform="scale(-3.52,-3.52) "/>
		</marker>
		<marker id="mrkr13-93" class="st7" v:arrowType="13" v:arrowSize="2" v:setback="10.56" refX="-10.56" orient="auto"
				markerUnits="strokeWidth" overflow="visible">
			<use xlink:href="#lend13" transform="scale(-3.52,-3.52) "/>
		</marker>
		<marker id="mrkr4-107" class="st7" v:arrowType="4" v:arrowSize="2" v:setback="7.04" refX="-7.04" orient="auto"
				markerUnits="strokeWidth" overflow="visible">
			<use xlink:href="#lend4" transform="scale(-3.52,-3.52) "/>
		</marker>
	</defs>
	<g v:mID="0" v:index="1" v:groupContext="foregroundPage">
		<v:userDefs>
			<v:ud v:nameU="msvThemeOrder" v:val="VT0(0):26"/>
		</v:userDefs>
		<title>Page 1</title>
		<v:pageProperties v:drawingScale="0.0393701" v:pageScale="0.0393701" v:drawingUnits="24" v:shadowOffsetX="8.50394"
				v:shadowOffsetY="-8.50394"/>
		<v:layer v:name="Lien" v:index="0"/>
		<g id="shape1-1" v:mID="1" v:groupContext="shape" transform="translate(382.677,-382.677)">
			<title>Rectangle</title>
			<desc>Dashboard</desc>
			<v:userDefs>
				<v:ud v:nameU="visVersion" v:val="VT0(15):26"/>
			</v:userDefs>
			<v:textBlock v:margins="rect(4,4,4,4)" v:tabSpace="42.5197"/>
			<v:textRect cx="56.6929" cy="552.756" width="113.39" height="85.0394"/>
			<rect x="0" y="510.236" width="113.386" height="85.0394" class="st1"/>
			<text x="25.78" y="556.96" class="st2" v:langID="1036"><v:paragraph v:horizAlign="1"/><v:tabList/>Dashboard</text>		</g>
		<g id="shape2-6" v:mID="2" v:groupContext="shape" transform="translate(146.954,-242.437)">
			<title>Rectangle.2</title>
			<desc>Compute</desc>
			<v:userDefs>
				<v:ud v:nameU="visVersion" v:val="VT0(15):26"/>
			</v:userDefs>
			<v:textBlock v:margins="rect(4,4,4,4)" v:tabSpace="42.5197"/>
			<v:textRect cx="56.6929" cy="552.756" width="113.39" height="85.0394"/>
			<rect x="0" y="510.236" width="113.386" height="85.0394" class="st1"/>
			<text x="30.49" y="556.96" class="st2" v:langID="1036"><v:paragraph v:horizAlign="1"/><v:tabList/>Compute</text>		</g>
		<g id="shape3-10" v:mID="3" v:groupContext="shape" transform="translate(623.622,-242.437)">
			<title>Rectangle.3</title>
			<desc>Stockage Images</desc>
			<v:userDefs>
				<v:ud v:nameU="visVersion" v:val="VT0(15):26"/>
			</v:userDefs>
			<v:textBlock v:margins="rect(4,4,4,4)" v:tabSpace="42.5197"/>
			<v:textRect cx="56.6929" cy="552.756" width="113.39" height="85.0394"/>
			<rect x="0" y="510.236" width="113.386" height="85.0394" class="st1"/>
			<text x="31.17" y="548.56" class="st2" v:langID="1036"><v:paragraph v:horizAlign="1"/><v:tabList/>Stockage<v:newlineChar/><tspan
						x="36.47" dy="1.2em" class="st3">Images</tspan></text>		</g>
		<g id="shape4-15" v:mID="4" v:groupContext="shape" transform="translate(382.677,-122.337)">
			<title>Rectangle.4</title>
			<desc>Gestion Identité</desc>
			<v:userDefs>
				<v:ud v:nameU="visVersion" v:val="VT0(15):26"/>
			</v:userDefs>
			<v:textBlock v:margins="rect(4,4,4,4)" v:tabSpace="42.5197"/>
			<v:textRect cx="56.6929" cy="552.756" width="113.39" height="85.0394"/>
			<rect x="0" y="510.236" width="113.386" height="85.0394" class="st1"/>
			<text x="34.74" y="548.56" class="st2" v:langID="1036"><v:paragraph v:horizAlign="1"/><v:tabList/>Gestion<v:newlineChar/><tspan
						x="34.31" dy="1.2em" class="st3">Identité</tspan></text>		</g>
		<g id="shape5-20" v:mID="5" v:groupContext="shape" transform="translate(434.772,-382.677)">
			<title>Feuille.5</title>
			<desc>Horizon</desc>
			<v:textBlock v:margins="rect(4,4,4,4)" v:tabSpace="42.5197"/>
			<v:textRect cx="30.6457" cy="585.276" width="61.3" height="20"/>
			<rect x="0" y="575.276" width="61.2913" height="20" class="st4"/>
			<text x="11.59" y="588.88" class="st5" v:langID="1036"><v:paragraph v:horizAlign="1"/><v:tabList/>Horizon</text>		</g>
		<g id="shape6-23" v:mID="6" v:groupContext="shape" transform="translate(215.148,-242.437)">
			<title>Feuille.6</title>
			<desc>Nova</desc>
			<v:textBlock v:margins="rect(4,4,4,4)" v:tabSpace="42.5197"/>
			<v:textRect cx="22.5959" cy="585.276" width="45.2" height="20"/>
			<rect x="0" y="575.276" width="45.1919" height="20" class="st4"/>
			<text x="9.97" y="588.88" class="st5" v:langID="1036"><v:paragraph v:horizAlign="1"/><v:tabList/>Nova</text>		</g>
		<g id="shape7-26" v:mID="7" v:groupContext="shape" transform="translate(680.315,-242.437)">
			<title>Feuille.7</title>
			<desc>Glance</desc>
			<v:textBlock v:margins="rect(4,4,4,4)" v:tabSpace="42.5197"/>
			<v:textRect cx="28.3465" cy="585.276" width="56.7" height="20"/>
			<rect x="0" y="575.276" width="56.6929" height="20" class="st4"/>
			<text x="11.64" y="588.88" class="st5" v:langID="1036"><v:paragraph v:horizAlign="1"/><v:tabList/>Glance</text>		</g>
		<g id="shape8-29" v:mID="8" v:groupContext="shape" transform="translate(425.197,-122.337)">
			<title>Feuille.8</title>
			<desc>Keystone</desc>
			<v:textBlock v:margins="rect(4,4,4,4)" v:tabSpace="42.5197"/>
			<v:textRect cx="35.4331" cy="585.276" width="70.87" height="20"/>
			<rect x="0" y="575.276" width="70.8661" height="20" class="st4"/>
			<text x="12.96" y="588.88" class="st5" v:langID="1036"><v:paragraph v:horizAlign="1"/><v:tabList/>Keystone</text>		</g>
		<g id="shape9-32" v:mID="9" v:groupContext="shape" v:layerMember="0" transform="translate(203.647,-327.476)">
			<title>Lien dynamique</title>
			<desc>Interface graphique</desc>
			<v:textBlock v:margins="rect(4,4,4,4)" v:tabSpace="42.5197"/>
			<v:textRect cx="60.0231" cy="506.485" width="98.67" height="21.204"/>
			<path d="M0.07 585.08 L0.07 584.72 C0.54 561.82 3.94 534.48 28.65 518.77 C59.51 499.15 123.6 497.68 168.47 497.56 L168.83
						 497.56" class="st6"/>
			<rect v:rectContext="textBkgnd" x="15.9342" y="499.885" width="88.1776" height="13.2003" class="st8"/>
			<text x="15.93" y="509.79" class="st9" v:langID="1036"><v:paragraph v:horizAlign="1"/><v:tabList/>Interface graphique</text>		</g>
		<g id="shape12-43" v:mID="12" v:groupContext="shape" v:layerMember="0" transform="translate(496.063,-164.857)">
			<title>Lien dynamique.12</title>
			<desc>Authentification Utilisateur</desc>
			<v:textBlock v:margins="rect(4,4,4,4)" v:tabSpace="42.5197"/>
			<v:textRect cx="114.174" cy="589.555" width="83.16" height="34.4044"/>
			<path d="M0 595.28 C46.06 595.28 121.98 595.28 156.19 577.71 C180.98 564.99 183.87 543.05 184.21 524.74 L184.21 524.38"
					class="st10"/>
			<rect v:rectContext="textBkgnd" x="77.8443" y="576.355" width="72.66" height="26.4007" class="st8"/>
			<text x="77.84" y="586.26" class="st9" v:langID="1036"><v:paragraph v:horizAlign="1"/><v:tabList/>Authentification<v:newlineChar/><tspan
						x="90.84" dy="1.2em" class="st3">Utilisateur</tspan></text>		</g>
		<g id="shape13-52" v:mID="13" v:groupContext="shape" v:layerMember="0" transform="translate(432.283,-382.677)">
			<title>Lien dynamique.13</title>
			<desc>Interface graphique</desc>
			<v:textBlock v:margins="rect(4,4,4,4)" v:tabSpace="42.5197"/>
			<v:textRect cx="-35.4331" cy="665.694" width="98.67" height="21.204"/>
			<path d="M-1.33 601.03 L-1.63 601.23 C-47.06 636.84 -46.7 715.31 -0.55 763.29 L-0.29 763.54" class="st6"/>
			<rect v:rectContext="textBkgnd" x="-79.5219" y="659.094" width="88.1776" height="13.2003" class="st8"/>
			<text x="-79.52" y="668.99" class="st9" v:langID="1036"><v:paragraph v:horizAlign="1"/><v:tabList/>Interface graphique</text>		</g>
		<g id="shape14-61" v:mID="14" v:groupContext="shape" v:layerMember="0" transform="translate(432.283,-207.377)">
			<title>Lien dynamique.14</title>
			<desc>Authentification Utilisateur</desc>
			<v:textBlock v:margins="rect(4,4,4,4)" v:tabSpace="42.5197"/>
			<v:textRect cx="41.1024" cy="467.717" width="83.16" height="34.4044"/>
			<path d="M7.09 595.28 C53.35 540.85 49.97 466.82 12 425.02 L11.75 424.76" class="st10"/>
			<rect v:rectContext="textBkgnd" x="4.77233" y="454.516" width="72.66" height="26.4007" class="st8"/>
			<text x="4.77" y="464.42" class="st9" v:langID="1036"><v:paragraph v:horizAlign="1"/><v:tabList/>Authentification<v:newlineChar/><tspan
						x="17.77" dy="1.2em" class="st3">Utilisateur</tspan></text>		</g>
		<g id="shape17-69" v:mID="17" v:groupContext="shape" v:layerMember="0" transform="translate(382.677,-164.857)">
			<title>Lien dynamique.17</title>
			<desc>Authentification Utilisateur</desc>
			<v:textBlock v:margins="rect(4,4,4,4)" v:tabSpace="42.5197"/>
			<v:textRect cx="-111.723" cy="589.433" width="83.16" height="34.4044"/>
			<path d="M0 595.28 C-44.76 595.28 -118.38 595.28 -151.64 577.78 C-175.83 565.05 -178.66 543.06 -178.99 524.74 L-178.99
						 524.38" class="st10"/>
			<rect v:rectContext="textBkgnd" x="-148.053" y="576.233" width="72.66" height="26.4007" class="st8"/>
			<text x="-148.05" y="586.13" class="st9" v:langID="1036"><v:paragraph v:horizAlign="1"/><v:tabList/>Authentification<v:newlineChar/><tspan
						x="-135.05" dy="1.2em" class="st3">Utilisateur</tspan></text>		</g>
		<g id="shape19-77" v:mID="19" v:groupContext="shape" v:layerMember="0" transform="translate(680.315,-327.476)">
			<title>Lien dynamique.19</title>
			<desc>Interface graphique</desc>
			<v:textBlock v:margins="rect(4,4,4,4)" v:tabSpace="42.5197"/>
			<v:textRect cx="-62.8105" cy="506.251" width="98.67" height="21.204"/>
			<path d="M-0.07 585.08 L-0.08 584.72 C-0.56 561.84 -4.04 534.59 -29.3 518.89 C-61.12 499.12 -127.48 497.67 -173.69 497.56
						 L-174.05 497.56" class="st6"/>
			<rect v:rectContext="textBkgnd" x="-106.899" y="499.651" width="88.1776" height="13.2003" class="st8"/>
			<text x="-106.9" y="509.55" class="st9" v:langID="1036"><v:paragraph v:horizAlign="1"/><v:tabList/>Interface graphique</text>		</g>
		<g id="shape20-86" v:mID="20" v:groupContext="shape" v:layerMember="0" transform="translate(260.34,-277.87)">
			<title>Lien dynamique.20</title>
			<desc>Images Des OS</desc>
			<v:textBlock v:margins="rect(4,4,4,4)" v:tabSpace="42.5197"/>
			<v:textRect cx="93.9909" cy="589.233" width="55" height="34.4044"/>
			<path d="M10.2 588.19 L10.56 588.19 L352.72 588.19" class="st11"/>
			<rect v:rectContext="textBkgnd" x="78.1004" y="576.033" width="31.781" height="26.4007" class="st8"/>
			<text x="78.1" y="585.93" class="st9" v:langID="1036"><v:paragraph v:horizAlign="1"/><v:tabList/>Images<v:newlineChar/><tspan
						x="78.31" dy="1.2em" class="st3">Des OS</tspan></text>		</g>
		<g id="group23-97" transform="translate(77.0315,-506.409)" v:mID="23" v:groupContext="group">
			<v:custProps>
				<v:cp v:nameU="ShapeClass" v:lbl="ShapeClass" v:prompt="" v:type="0" v:format="" v:sortKey="" v:invis="true"
						v:ask="false" v:langID="1036" v:cal="0" v:val="VT4(Emplacement)"/>
				<v:cp v:nameU="ShapeType" v:lbl="ShapeType" v:prompt="" v:type="0" v:format="" v:sortKey="" v:invis="true"
						v:ask="false" v:langID="1036" v:cal="0" v:val="VT4(Nuage)"/>
			</v:custProps>
			<v:userDefs>
				<v:ud v:nameU="visVersion" v:prompt="" v:val="VT0(15):26"/>
				<v:ud v:nameU="ShapeClass" v:prompt="" v:val="VT0(5):26"/>
				<v:ud v:nameU="SolSH" v:prompt="" v:val="VT15({BF0433D9-CD73-4EB5-8390-8653BE590246}):41"/>
				<v:ud v:nameU="visLegendShape" v:prompt="" v:val="VT0(2):26"/>
			</v:userDefs>
			<title>Nuage</title>
			<desc>Utilisateur Final</desc>
			<g id="shape24-98" v:mID="24" v:groupContext="shape" transform="translate(0,-15.1187)">
				<title>Feuille.24</title>
				<path d="M625.24 565.72 C621.34 562.37 590.21 559.75 551.96 559.75 C541.08 559.75 530.87 559.97 521.58 560.35 C503.58
							 557.06 466.35 554.65 396.46 554.84 C305.66 555.09 198.15 559.09 176.53 566.18 C150.64 566.67 133.99
							 568.04 124.05 569.87 C120.03 569.83 115.94 569.8 111.73 569.8 C51.94 569.8 6.02 574.07 3.41 579.32 C0
							 586.12 51.93 588.84 111.73 588.84 C120.3 588.84 128.54 588.75 136.53 588.58 C148.96 589.37 165.15 589.86
							 182.9 589.86 C199.32 589.86 214.44 589.44 226.44 588.75 C249.44 592.58 296.78 595.28 351.33 594.96 C408.77
							 594.63 443.22 593.44 463.56 591.59 C464.84 591.58 466.02 591.58 467.33 591.56 C531.53 590.76 559.76
							 589.13 568.84 586.45 C570.52 586.45 572.26 586.46 573.96 586.46 C657.24 586.46 724.68 584.08 724.68
							 575.75 C724.68 571.12 683.08 567.21 625.24 565.72 Z" class="st12"/>
			</g>
			<g id="shape23-100" v:mID="23" v:groupContext="groupContent">
				<v:textBlock v:margins="rect(4,4,4,4)" v:tabSpace="42.5197"/>
				<v:textRect cx="362.339" cy="558.85" width="100.64" height="24.8035"/>
				<text x="317.6" y="563.05" class="st13" v:langID="1036"><v:paragraph v:horizAlign="1"/><v:tabList/>Utilisateur Final</text>			</g>
		</g>
		<g id="shape25-102" v:mID="25" v:groupContext="shape" v:layerMember="0" transform="translate(432.283,-467.717)">
			<title>Lien dynamique.25</title>
			<desc>HTTP(S)</desc>
			<v:textBlock v:margins="rect(4,4,4,4)" v:tabSpace="42.5197"/>
			<v:textRect cx="7.08661" cy="568.174" width="55" height="21.204"/>
			<path d="M7.09 595.28 L7.09 548.11" class="st14"/>
			<rect v:rectContext="textBkgnd" x="-10.4046" y="561.574" width="34.9824" height="13.2003" class="st8"/>
			<text x="-10.4" y="571.47" class="st9" v:langID="1036"><v:paragraph v:horizAlign="1"/><v:tabList/>HTTP(S)</text>		</g>
		<g id="shape26-110" v:mID="26" v:groupContext="shape" v:layerMember="0" transform="translate(203.647,-327.476)">
			<title>Lien dynamique.26</title>
			<desc>VNC</desc>
			<v:textBlock v:margins="rect(4,4,4,4)" v:tabSpace="42.5197"/>
			<v:textRect cx="-17.6147" cy="426.328" width="55" height="21.204"/>
			<path d="M0 595.28 C0 509.35 0 460.37 -7.57 439.31 C-13.27 423.43 -23.29 423.43 -40.29 423.43 C-57.51 423.43 -81.89 423.43
						 -101.66 423.43 C-116.58 423.43 -128.87 423.43 -132.34 419.22 C-133.7 417.57 -133.7 415.27 -133.7 412.33
						 C-133.7 409.17 -133.7 405.28 -133.7 398.92 C-133.7 393.83 -133.7 387.15 -130.54 383.93 C-128.25 381.58 -124.28
						 381.06 -117.08 380.94 L-116.72 380.94" class="st10"/>
			<rect v:rectContext="textBkgnd" x="-27.2182" y="419.728" width="19.2074" height="13.2003" class="st8"/>
			<text x="-27.22" y="429.63" class="st9" v:langID="1036"><v:paragraph v:horizAlign="1"/><v:tabList/>VNC</text>		</g>
	</g>
</svg>
